<?xml version="1.0" encoding="UTF-8" standalone="no"?><!DOCTYPE svg PUBLIC "-//W3C//DTD SVG 1.1//EN" "http://www.w3.org/Graphics/SVG/1.1/DTD/svg11.dtd"><svg width="100%" height="100%" viewBox="0 0 1500 1500" version="1.1" xmlns="http://www.w3.org/2000/svg" xmlns:xlink="http://www.w3.org/1999/xlink" xml:space="preserve" xmlns:serif="http://www.serif.com/" style="fill-rule:evenodd;clip-rule:evenodd;stroke-linejoin:round;stroke-miterlimit:2;"><path d="M867.23,1097.27c0,-29.25 0.38,-58.53 -0.13,-87.78c-0.44,-25.49 -0.88,-25.62 -26,-25.66c-88.4,-0.15 -176.81,-0.74 -265.18,0.13c-21.9,0.21 -37.43,-6.27 -49.91,-24.42c-16.54,-24.07 -35.31,-46.6 -52.33,-70.34c-8.39,-11.73 -18.1,-17.7 -32.95,-16.92c-19.68,1 -39.41,0.31 -59.1,0.36c-12.53,0 -22.66,-2.57 -29.63,-15.28c-15.74,-28.77 -40.1,-38.57 -70.7,-30.43c-25.85,6.87 -45.39,30.53 -45.67,55.27c-0.36,31.8 17.37,56.8 45.85,64.8c25.74,7.25 53.11,-4.54 69.1,-28.83c4.06,-6.18 10.05,-15 15.74,-15.51c23.69,-2 47.6,-1.89 71.37,-1c5.32,0.21 11.52,6 15.34,10.82c19.74,24.68 39.28,49.52 58,75c11.46,15.59 24.89,24.08 45.08,23.2c26.84,-1.18 53.76,-0.36 80.64,-0.27c34,0.12 68.09,0.14 102.14,0.69c13.82,0.21 18.76,6.54 10.71,19.48c-1.55,2.5 -2.48,5.46 -4.16,7.88c-38.56,55.23 -38.56,54.79 -107.2,55.17c-15.87,0.08 -25.6,-3.49 -34.11,-18.6c-15.86,-28.1 -52.28,-36.25 -80,-21.06c-27,14.78 -39.88,47.12 -29.1,73c15,35.83 42.77,50 76.71,39.74c16.43,-5 27.59,-15.2 35.87,-30c7.86,-14 24.57,-19.1 42.32,-14.71c16.17,4 11.79,17.13 12.3,27.76c0.743,12.521 0.787,25.074 0.13,37.6c-0.95,14.46 4.37,20.32 19.29,20.19c55.56,-0.5 111.13,-0.5 166.71,0c14.09,0.14 19,-5.24 18.75,-19c-0.61,-30.45 -0.19,-60.91 -0.19,-91.36l0.31,0.08Zm-571.23,-178.27c-17.44,-0.09 -30,-14.44 -29.38,-33.65c0.57,-18.62 13.75,-31.29 32.2,-31c16.54,0.28 31.29,15.79 31.29,32.89c-0.02,17.86 -15.11,31.88 -34.11,31.76Zm257,222.45c-17.3,0.12 -32.76,-15.41 -32.93,-33.1c-0.002,-0.154 -0.003,-0.308 -0.003,-0.462c-0,-17.213 14.041,-31.432 31.253,-31.648c19.48,-0.26 34.91,13 35.07,30.22c0.13,17.94 -16.05,34.9 -33.45,35.01l0.06,-0.02Z" style="fill:url(#_Linear1);fill-rule:nonzero;"/><path d="M845.56,759.7c-149.247,-0.553 -298.5,-0.66 -447.76,-0.32c-17,0 -28.83,-4.33 -39.23,-18.77c-25.1,-34.8 -52.48,-67.94 -78,-102.47c-8.43,-11.41 -18,-15.95 -31.76,-15.51c-19.67,0.61 -39.42,-0.54 -59.07,0.3c-14.88,0.63 -24.17,-4.63 -31.4,-18c-12.24,-22.79 -33.62,-32.31 -58.44,-29.93c-31.06,2.92 -52.66,24.82 -56.61,53.59c-3.76,27.29 10.09,54.41 33.52,65.52c26.54,12.59 61.24,8 76.77,-17.8c14.42,-24 33,-23 54.35,-22.72c9.56,0.12 19.14,0.55 28.64,0c11.83,-0.72 19.94,3.67 27.17,13.3c26.48,35.26 54.39,69.46 80.41,105.06c8.91,12.17 18.68,16.31 33,16.22c77.62,-0.42 155.23,-0.19 232.84,-0.19l-0,-0.78l9,0c76.44,-0.04 152.86,-0.087 229.26,-0.14c16.96,-0.06 4.27,-27.34 -2.69,-27.36Zm-739.9,-90.2c-16.66,0 -31.5,-14.15 -31.66,-30.12c-0.14,-18 14.78,-32.76 33.15,-32.74c15.93,0 30.53,14.94 30.57,31.29c0.08,17.49 -14.26,31.59 -32.06,31.57Z" style="fill:url(#_Linear2);fill-rule:nonzero;"/><path d="M847.54,870.81c-41.17,0.33 -82.34,1 -123.51,0.82c-11.37,-0 -23,1.55 -31.63,-11.2c-7.71,-11.46 -18.11,-22.24 -29.65,-29.74c-25.81,-16.75 -71.12,-2.31 -83.56,25c-14.5,31.76 -2.12,68.5 28.41,84.28c29,15 64.48,4.12 81.61,-26c6.09,-10.72 13.85,-15.28 25.85,-15.09c22.06,0.38 44.15,0.11 66.22,0.11l0,-0.3l66.26,-0c9.52,-0 19.42,1.66 19.25,-13.64c-0.17,-14.79 -9.31,-14.33 -19.25,-14.24Zm-212.54,46.72c-17.85,-0.073 -32.497,-14.78 -32.497,-32.63c0,-0.22 0.003,-0.44 0.007,-0.66c0.27,-17.93 15.93,-32.87 33.79,-32.3c16.9,0.56 31.88,15.95 31.78,32.63c-0.08,18.16 -15.08,33.12 -33.08,32.96Z" style="fill:url(#_Linear3);fill-rule:nonzero;"/><path d="M1148.78,292.39l-220.54,0l-0,1.52l-160.35,0l-0,-1.52l-227.77,0l-0,168.51c33.92,-0.087 67.847,-0.243 101.78,-0.47c17.59,-0.12 24.3,5.93 23.94,24.05c-0.933,46.547 -0.893,93.11 0.12,139.69c0.36,17.21 -5.77,23.7 -22.73,23.47c-46,-0.593 -92,-0.65 -138,-0.17c-12.3,0.13 -19.78,-4.28 -25.77,-15c-14.74,-26.47 -41.92,-37.56 -71.65,-30.47c-24.91,5.94 -44,29.76 -45,56c-1.15,30.81 14.48,53.55 44.16,64.23c23.62,8.51 54.64,-0.57 68.34,-24.91c10.89,-19.32 25.26,-21.32 44.11,-21.27c110.52,0.34 221.05,-0.31 331.57,0.09c15.74,0.06 20.84,-5.15 20.7,-20.64c-0.55,-55.5 -0.05,-111 0.08,-166.57c-0,-26.54 1.93,-28.37 28.58,-28.52c9.3,-0.04 18.597,-0.093 27.89,-0.16l-0,0.37l217.88,-0l-0,517.89l-217.88,-0l-0,229.1l204.59,-0c83.249,-0.005 151.75,-68.511 151.75,-151.76l-0,-627.65c-0,-0.003 -0,-0.007 -0,-0.01c-0,-74.498 -61.302,-135.8 -135.8,-135.8Zm-724.56,401.49c-16.08,-0 -30.51,-14.25 -30.81,-30.48c-0.36,-18.41 13.79,-33.31 31.76,-33.45c16.24,-0.15 31.92,15.17 32.36,31.6c0.44,17.26 -15.05,32.31 -33.31,32.33Z" style="fill:#1b6991;fill-rule:nonzero;"/><path d="M1909.44,620.25l-0.1,0.12l0.17,0l1.34,-1l-1.41,0.88Zm-0.43,0.25c-0.065,0.103 -0.106,0.219 -0.12,0.34l0.45,-0.47c-0.12,0.022 -0.236,0.066 -0.34,0.13l0.01,0Zm0.43,-0.25l-0.1,0.12l0.17,0l1.34,-1l-1.41,0.88Zm-0.43,0.25c-0.065,0.103 -0.106,0.219 -0.12,0.34l0.45,-0.47c-0.12,0.022 -0.236,0.066 -0.34,0.13l0.01,0Zm-19.79,9.6c0.038,0.082 0.071,0.165 0.1,0.25c0.329,-0.36 0.722,-0.655 1.16,-0.87c-0.4,0.2 -0.82,0.42 -1.26,0.62Zm0.1,0.25l-0.18,0c-0.206,0.665 -0.47,1.311 -0.79,1.93c0.33,-0.64 0.65,-1.27 1,-1.91l-0.03,-0.02Zm-469.85,-939.86c-0.145,0.495 -0.255,1 -0.33,1.51c0.087,-0.51 0.203,-1.014 0.35,-1.51l-0.02,0Zm-493.42,938.57l-0,0.05l-0,-0.05Z" style="fill:#fff;fill-rule:nonzero;"/><defs><linearGradient id="_Linear1" x1="0" y1="0" x2="1" y2="0" gradientUnits="userSpaceOnUse" gradientTransform="matrix(631.77,0,0,631.77,235.6,1015.89)"><stop offset="0" style="stop-color:#207aa8;stop-opacity:1"/><stop offset="0.89" style="stop-color:#1674a4;stop-opacity:1"/><stop offset="1" style="stop-color:#1674a4;stop-opacity:1"/></linearGradient><linearGradient id="_Linear2" x1="0" y1="0" x2="1" y2="0" gradientUnits="userSpaceOnUse" gradientTransform="matrix(662607,0,0,662607,34784.8,146066)"><stop offset="0" style="stop-color:#207aa8;stop-opacity:1"/><stop offset="0.22" style="stop-color:#207aa8;stop-opacity:1"/><stop offset="0.46" style="stop-color:#3bbdd0;stop-opacity:1"/><stop offset="0.68" style="stop-color:#3bbdd0;stop-opacity:1"/><stop offset="0.99" style="stop-color:#1674a4;stop-opacity:1"/><stop offset="1" style="stop-color:#1674a4;stop-opacity:1"/></linearGradient><linearGradient id="_Linear3" x1="0" y1="0" x2="1" y2="0" gradientUnits="userSpaceOnUse" gradientTransform="matrix(86231,0,0,86231,168877,109796)"><stop offset="0" style="stop-color:#207aa8;stop-opacity:1"/><stop offset="0.22" style="stop-color:#207aa8;stop-opacity:1"/><stop offset="0.46" style="stop-color:#3bbdd0;stop-opacity:1"/><stop offset="0.68" style="stop-color:#3bbdd0;stop-opacity:1"/><stop offset="0.99" style="stop-color:#1674a4;stop-opacity:1"/><stop offset="1" style="stop-color:#1674a4;stop-opacity:1"/></linearGradient></defs></svg>